<svg width="500" height="280" clip-rule="evenodd" fill-rule="evenodd" image-rendering="optimizeQuality" shape-rendering="geometricPrecision" text-rendering="geometricPrecision" viewBox="0 0 500 279.4" xmlns="http://www.w3.org/2000/svg"><path d="M509.99 50.285l5.808 10.476-26.11 32.063c5.859 6.982 9.328 15.442 9.423 24.589.25 24.318-23.442 44.286-52.911 44.59-22.6.233-42.04-11.166-49.99-27.461-65.18-.344-103.03 29.521-138.02 70.984l-233.81 3.322-.405-5.868 254.82-44.43c22.053-3.054 32.368-16.137 63.352-25.766 26.409-6.405 41.082-11.574 50.469-18.856 2.55-22.193 25.078-39.72 52.671-40.004 11.843-.122 22.818 2.951 31.727 8.25l32.972-31.89zm-64.786 31.932c20.98-.217 38.161 15.694 38.366 35.53.205 19.836-16.644 36.098-37.624 36.314-20.98.217-38.161-15.694-38.366-35.53-.205-19.836 16.644-36.098 37.624-36.314zm-21.817 91.082l10.232-8.747 13.908 13.872c15.934 7.564 26.886 22.718 27.068 40.285.262 25.367-22.031 46.172-49.782 46.458-24.199.25-44.568-15.184-49.561-35.96l-.001.005c-22.93-24.292-64.734-25.452-110.46-21.81l22.212-23.374c30.003 17.484 61.097 17.853 92.687 10.443l3.312-1.307c10.917-11.7 22.004-18.82 40.382-19.865zm-1.475 11.755c21.266-.22 38.676 15.379 38.877 34.834.201 19.455-16.883 35.41-38.149 35.629-21.267.22-38.676-15.379-38.877-34.834-.2-19.454 16.882-35.409 38.15-35.629zm-166.14-9.21c3.72-1.335 7.997.03 10.202 3.504 2.206 3.474 1.62 7.926-1.171 10.723l-9.03-14.227zm5.823 16.263c-3.719 1.335-7.997-.029-10.202-3.504-2.206-3.474-1.62-7.926 1.172-10.723l9.03 14.227z" fill="gray"/></svg>